<svg xmlns="http://www.w3.org/2000/svg" width="120" height="120" viewBox="0 0 120 120">
  <g fill="none" stroke="#ffffff" stroke-width="2" stroke-linecap="round" opacity="0.35">
    <circle cx="20" cy="24" r="7"/>
    <path d="M52 16 h14 M59 9 v14"/>
    <path d="M92 20 q8 6 0 14 q-8 -6 0 -14"/>
    <path d="M14 60 q10 -8 20 0"/>
    <circle cx="72" cy="58" r="5"/>
    <path d="M98 52 h12 M104 46 v12"/>
    <path d="M20 96 q8 8 16 0"/>
    <circle cx="60" cy="100" r="7"/>
    <path d="M96 92 l10 10 M106 92 l-10 10"/>
    <path d="M40 44 l8 8 M48 44 l-8 8"/>
  </g>
</svg>
